# xmcd
#
# Track frame offsets:
# 150
# 6692
# 25585
# 47890
# 64525
# 82430
# 103355
# 120062
# 136677
# 162527
# 178332
# 200682
#
# Disc length: 2972 seconds
#
#
# Revision: 0
# Processed by: cddbd v1.5.1PL0 Copyright (c) Steve Scherf et al.
# Submitted via: FreeRIP 2.53 
#
DISCID=ab0b9a0c
DTITLE=Virgínia Rodrigues - Nós
DYEAR=1900
DGENRE=Jazz
TTITLE0=Canto para Exú
TTITLE1=Uma história de Ifá
TTITLE2=Salvador não inerte
TTITLE3=Afrekêtê
TTITLE4=Jeito faceiro
TTITLE5=Depois que o Ilê passar
TTITLE6=Ojú Obá
TTITLE7=Raça negra
TTITLE8=Deus do fogo e da justiça
TTITLE9=Malê de balê
TTITLE10=Mimar você
TTITLE11=Reino de Daomê
EXTD=
EXTT0=
EXTT1=
EXTT2=
EXTT3=
EXTT4=
EXTT5=
EXTT6=
EXTT7=
EXTT8=
EXTT9=
EXTT10=
EXTT11=
PLAYORDER=
